<svg width="47" height="48" viewBox="0 0 47 48" fill="none" xmlns="http://www.w3.org/2000/svg">
<g filter="url(#filter0_d_409_43)">
<path d="M23.5 39.3281L21.5781 37.5937C18.2656 34.5625 15.5312 31.9453 13.375 29.7422C11.2188 27.5391 9.5 25.5703 8.21875 23.8359C6.9375 22.1016 6.03906 20.5312 5.52344 19.125C5.00781 17.7187 4.75 16.2969 4.75 14.8594C4.75 12.0469 5.69531 9.69531 7.58594 7.80469C9.47656 5.91406 11.8125 4.96875 14.5938 4.96875C16.375 4.96875 18.0234 5.39062 19.5391 6.23437C21.0547 7.07812 22.375 8.29687 23.5 9.89062C24.8125 8.20312 26.2031 6.96094 27.6719 6.16406C29.1406 5.36719 30.7188 4.96875 32.4062 4.96875C35.1875 4.96875 37.5234 5.91406 39.4141 7.80469C41.3047 9.69531 42.25 12.0469 42.25 14.8594C42.25 16.2969 41.9922 17.7187 41.4766 19.125C40.9609 20.5312 40.0625 22.1016 38.7812 23.8359C37.5 25.5703 35.7812 27.5391 33.625 29.7422C31.4688 31.9453 28.7344 34.5625 25.4219 37.5937L23.5 39.3281ZM23.5 35.625C26.6562 32.7187 29.2578 30.2266 31.3047 28.1484C33.3516 26.0703 34.9766 24.25 36.1797 22.6875C37.3828 21.125 38.2266 19.7344 38.7109 18.5156C39.1953 17.2969 39.4375 16.0781 39.4375 14.8594C39.4375 12.7969 38.7812 11.1016 37.4688 9.77344C36.1563 8.44531 34.4688 7.78125 32.4062 7.78125C30.8125 7.78125 29.3281 8.27344 27.9531 9.25781C26.5781 10.2422 25.4688 11.625 24.625 13.4062H22.3281C21.5156 11.6562 20.4219 10.2812 19.0469 9.28125C17.6719 8.28125 16.1875 7.78125 14.5938 7.78125C12.5312 7.78125 10.8438 8.44531 9.53125 9.77344C8.21875 11.1016 7.5625 12.7969 7.5625 14.8594C7.5625 16.0781 7.80469 17.3047 8.28906 18.5391C8.77344 19.7734 9.61719 21.1797 10.8203 22.7578C12.0234 24.3359 13.6562 26.1562 15.7188 28.2187C17.7812 30.2812 20.375 32.75 23.5 35.625Z" fill="#FF7676"/>
</g>
<defs>
<filter id="filter0_d_409_43" x="-3" y="0" width="53" height="53" filterUnits="userSpaceOnUse" color-interpolation-filters="sRGB">
<feFlood flood-opacity="0" result="BackgroundImageFix"/>
<feColorMatrix in="SourceAlpha" type="matrix" values="0 0 0 0 0 0 0 0 0 0 0 0 0 0 0 0 0 0 127 0" result="hardAlpha"/>
<feOffset dy="4"/>
<feGaussianBlur stdDeviation="2"/>
<feComposite in2="hardAlpha" operator="out"/>
<feColorMatrix type="matrix" values="0 0 0 0 0 0 0 0 0 0 0 0 0 0 0 0 0 0 0.25 0"/>
<feBlend mode="normal" in2="BackgroundImageFix" result="effect1_dropShadow_409_43"/>
<feBlend mode="normal" in="SourceGraphic" in2="effect1_dropShadow_409_43" result="shape"/>
</filter>
</defs>
</svg>
