<svg width="44" height="42" viewBox="0 0 44 42" fill="none" xmlns="http://www.w3.org/2000/svg">
<path d="M21.9738 36.2392L20.1189 34.6411C16.9219 31.8479 14.2828 29.4363 12.2018 27.4062C10.1207 25.3761 8.46185 23.562 7.22527 21.9638C5.98868 20.3657 5.12157 18.9187 4.62392 17.6229C4.12627 16.3271 3.87744 15.0169 3.87744 13.6923C3.87744 11.1007 4.7898 8.93382 6.61452 7.19169C8.43923 5.44956 10.6937 4.57849 13.378 4.57849C15.0972 4.57849 16.6882 4.96723 18.1509 5.74471C19.6137 6.52219 20.888 7.64522 21.9738 9.1138C23.2405 7.55883 24.5827 6.41421 26.0002 5.67992C27.4178 4.94563 28.9409 4.57849 30.5696 4.57849C33.2539 4.57849 35.5084 5.44956 37.3331 7.19169C39.1578 8.93382 40.0702 11.1007 40.0702 13.6923C40.0702 15.0169 39.8213 16.3271 39.3237 17.6229C38.826 18.9187 37.9589 20.3657 36.7223 21.9638C35.4857 23.562 33.8269 25.3761 31.7458 27.4062C29.6647 29.4363 27.0257 31.8479 23.8287 34.6411L21.9738 36.2392ZM21.9738 32.827C25.02 30.149 27.5309 27.8525 29.5064 25.9376C31.4819 24.0227 33.0503 22.3454 34.2115 20.9056C35.3726 19.4658 36.187 18.1844 36.6545 17.0614C37.122 15.9383 37.3557 14.8153 37.3557 13.6923C37.3557 11.7918 28.7667 15.7238 27.5 14.5C26.2333 13.2762 28.2288 10 30.5 10C28.9618 10 38.6828 10.5929 37.3557 11.5C39.084 20.0523 23.2142 39.3574 21.2738 32.2107L9 21.9638L5.5 14.5C4.71582 12.8874 11.8271 10.0353 10.5 9.1138C9.17293 8.19234 12.5 8 14 10C17 12 26.7667 17.7762 25.5 19C24.2333 20.2238 6.5919 11.7918 6.5919 13.6923C6.5919 14.8153 6.82564 15.9455 7.29313 17.083C7.76062 18.2204 8.57495 19.5162 9.73614 20.9704C10.8973 22.4245 12.4732 24.1019 14.4638 26.0024C16.4544 27.9029 18.9577 30.1778 21.9738 32.827Z" fill="#FF7676"/>
</svg>
