<svg width="350" height="350" viewBox="0 0 350 350" fill="none" xmlns="http://www.w3.org/2000/svg">
<path d="M145.19 24.1379H132.759V36.569H145.19V24.1379Z" fill="white"/>
<path d="M169.328 24.1379H156.897V36.569H169.328V24.1379Z" fill="white"/>
<path d="M181.397 24.1379H168.966V36.569H181.397V24.1379Z" fill="white"/>
<path d="M229.672 24.1379H217.241V36.569H229.672V24.1379Z" fill="white"/>
<path d="M145.19 36.2068H132.759V48.6378H145.19V36.2068Z" fill="white"/>
<path d="M157.259 36.2068H144.828V48.6378H157.259V36.2068Z" fill="white"/>
<path d="M169.328 36.2068H156.897V48.6378H169.328V36.2068Z" fill="white"/>
<path d="M193.465 36.2068H181.034V48.6378H193.465V36.2068Z" fill="white"/>
<path d="M205.535 36.2068H193.104V48.6378H205.535V36.2068Z" fill="white"/>
<path d="M217.603 36.2068H205.172V48.6378H217.603V36.2068Z" fill="white"/>
<path d="M133.121 48.2759H120.69V60.7069H133.121V48.2759Z" fill="white"/>
<path d="M145.19 48.2759H132.759V60.7069H145.19V48.2759Z" fill="white"/>
<path d="M157.259 48.2759H144.828V60.7069H157.259V48.2759Z" fill="white"/>
<path d="M169.328 48.2759H156.897V60.7069H169.328V48.2759Z" fill="white"/>
<path d="M181.397 48.2759H168.966V60.7069H181.397V48.2759Z" fill="white"/>
<path d="M205.535 48.2759H193.104V60.7069H205.535V48.2759Z" fill="white"/>
<path d="M133.121 60.3447H120.69V72.7758H133.121V60.3447Z" fill="white"/>
<path d="M157.259 60.3447H144.828V72.7758H157.259V60.3447Z" fill="white"/>
<path d="M193.465 60.3447H181.034V72.7758H193.465V60.3447Z" fill="white"/>
<path d="M217.603 60.3447H205.172V72.7758H217.603V60.3447Z" fill="white"/>
<path d="M229.672 60.3447H217.241V72.7758H229.672V60.3447Z" fill="white"/>
<path d="M133.121 72.4138H120.69V84.8449H133.121V72.4138Z" fill="white"/>
<path d="M193.465 72.4138H181.034V84.8449H193.465V72.4138Z" fill="white"/>
<path d="M229.672 72.4138H217.241V84.8449H229.672V72.4138Z" fill="white"/>
<path d="M133.121 84.4827H120.69V96.9137H133.121V84.4827Z" fill="white"/>
<path d="M145.19 84.4827H132.759V96.9137H145.19V84.4827Z" fill="white"/>
<path d="M157.259 84.4827H144.828V96.9137H157.259V84.4827Z" fill="white"/>
<path d="M181.397 84.4827H168.966V96.9137H181.397V84.4827Z" fill="white"/>
<path d="M193.465 84.4827H181.034V96.9137H193.465V84.4827Z" fill="white"/>
<path d="M205.535 84.4827H193.104V96.9137H205.535V84.4827Z" fill="white"/>
<path d="M217.603 84.4827H205.172V96.9137H217.603V84.4827Z" fill="white"/>
<path d="M229.672 84.4827H217.241V96.9137H229.672V84.4827Z" fill="white"/>
<path d="M133.121 96.5518H120.69V108.983H133.121V96.5518Z" fill="white"/>
<path d="M157.259 96.5518H144.828V108.983H157.259V96.5518Z" fill="white"/>
<path d="M181.397 96.5518H168.966V108.983H181.397V96.5518Z" fill="white"/>
<path d="M205.535 96.5518H193.104V108.983H205.535V96.5518Z" fill="white"/>
<path d="M229.672 96.5518H217.241V108.983H229.672V96.5518Z" fill="white"/>
<path d="M133.121 108.621H120.69V121.052H133.121V108.621Z" fill="white"/>
<path d="M157.259 108.621H144.828V121.052H157.259V108.621Z" fill="white"/>
<path d="M169.328 108.621H156.897V121.052H169.328V108.621Z" fill="white"/>
<path d="M205.535 108.621H193.104V121.052H205.535V108.621Z" fill="white"/>
<path d="M229.672 108.621H217.241V121.052H229.672V108.621Z" fill="white"/>
<path d="M36.569 120.69H24.1379V133.121H36.569V120.69Z" fill="white"/>
<path d="M60.7069 120.69H48.2759V133.121H60.7069V120.69Z" fill="white"/>
<path d="M72.7759 120.69H60.3448V133.121H72.7759V120.69Z" fill="white"/>
<path d="M84.8449 120.69H72.4138V133.121H84.8449V120.69Z" fill="white"/>
<path d="M96.9138 120.69H84.4828V133.121H96.9138V120.69Z" fill="white"/>
<path d="M108.983 120.69H96.5518V133.121H108.983V120.69Z" fill="white"/>
<path d="M181.397 120.69H168.966V133.121H181.397V120.69Z" fill="white"/>
<path d="M253.81 120.69H241.379V133.121H253.81V120.69Z" fill="white"/>
<path d="M265.879 120.69H253.448V133.121H265.879V120.69Z" fill="white"/>
<path d="M277.948 120.69H265.517V133.121H277.948V120.69Z" fill="white"/>
<path d="M290.017 120.69H277.586V133.121H290.017V120.69Z" fill="white"/>
<path d="M302.086 120.69H289.655V133.121H302.086V120.69Z" fill="white"/>
<path d="M48.6379 132.759H36.2069V145.19H48.6379V132.759Z" fill="white"/>
<path d="M60.7069 132.759H48.2759V145.19H60.7069V132.759Z" fill="white"/>
<path d="M72.7759 132.759H60.3448V145.19H72.7759V132.759Z" fill="white"/>
<path d="M96.9138 132.759H84.4828V145.19H96.9138V132.759Z" fill="white"/>
<path d="M121.052 132.759H108.621V145.19H121.052V132.759Z" fill="white"/>
<path d="M157.259 132.759H144.828V145.19H157.259V132.759Z" fill="white"/>
<path d="M169.328 132.759H156.897V145.19H169.328V132.759Z" fill="white"/>
<path d="M193.465 132.759H181.034V145.19H193.465V132.759Z" fill="white"/>
<path d="M229.672 132.759H217.241V145.19H229.672V132.759Z" fill="white"/>
<path d="M265.879 132.759H253.448V145.19H265.879V132.759Z" fill="white"/>
<path d="M314.155 132.759H301.724V145.19H314.155V132.759Z" fill="white"/>
<path d="M60.7069 144.828H48.2759V157.259H60.7069V144.828Z" fill="white"/>
<path d="M72.7759 144.828H60.3448V157.259H72.7759V144.828Z" fill="white"/>
<path d="M84.8449 144.828H72.4138V157.259H84.8449V144.828Z" fill="white"/>
<path d="M96.9138 144.828H84.4828V157.259H96.9138V144.828Z" fill="white"/>
<path d="M108.983 144.828H96.5518V157.259H108.983V144.828Z" fill="white"/>
<path d="M121.052 144.828H108.621V157.259H121.052V144.828Z" fill="white"/>
<path d="M133.121 144.828H120.69V157.259H133.121V144.828Z" fill="white"/>
<path d="M193.465 144.828H181.034V157.259H193.465V144.828Z" fill="white"/>
<path d="M205.535 144.828H193.104V157.259H205.535V144.828Z" fill="white"/>
<path d="M217.603 144.828H205.172V157.259H217.603V144.828Z" fill="white"/>
<path d="M253.81 144.828H241.379V157.259H253.81V144.828Z" fill="white"/>
<path d="M265.879 144.828H253.448V157.259H265.879V144.828Z" fill="white"/>
<path d="M290.017 144.828H277.586V157.259H290.017V144.828Z" fill="white"/>
<path d="M314.155 144.828H301.724V157.259H314.155V144.828Z" fill="white"/>
<path d="M326.224 144.828H313.793V157.259H326.224V144.828Z" fill="white"/>
<path d="M72.7759 156.896H60.3448V169.328H72.7759V156.896Z" fill="white"/>
<path d="M133.121 156.896H120.69V169.328H133.121V156.896Z" fill="white"/>
<path d="M145.19 156.896H132.759V169.328H145.19V156.896Z" fill="white"/>
<path d="M157.259 156.896H144.828V169.328H157.259V156.896Z" fill="white"/>
<path d="M169.328 156.896H156.897V169.328H169.328V156.896Z" fill="white"/>
<path d="M193.465 156.896H181.034V169.328H193.465V156.896Z" fill="white"/>
<path d="M229.672 156.896H217.241V169.328H229.672V156.896Z" fill="white"/>
<path d="M241.741 156.896H229.31V169.328H241.741V156.896Z" fill="white"/>
<path d="M253.81 156.896H241.379V169.328H253.81V156.896Z" fill="white"/>
<path d="M265.879 156.896H253.448V169.328H265.879V156.896Z" fill="white"/>
<path d="M277.948 156.896H265.517V169.328H277.948V156.896Z" fill="white"/>
<path d="M326.224 156.896H313.793V169.328H326.224V156.896Z" fill="white"/>
<path d="M72.7759 168.966H60.3448V181.397H72.7759V168.966Z" fill="white"/>
<path d="M84.8449 168.966H72.4138V181.397H84.8449V168.966Z" fill="white"/>
<path d="M96.9138 168.966H84.4828V181.397H96.9138V168.966Z" fill="white"/>
<path d="M108.983 168.966H96.5518V181.397H108.983V168.966Z" fill="white"/>
<path d="M121.052 168.966H108.621V181.397H121.052V168.966Z" fill="white"/>
<path d="M169.328 168.966H156.897V181.397H169.328V168.966Z" fill="white"/>
<path d="M181.397 168.966H168.966V181.397H181.397V168.966Z" fill="white"/>
<path d="M205.535 168.966H193.104V181.397H205.535V168.966Z" fill="white"/>
<path d="M241.741 168.966H229.31V181.397H241.741V168.966Z" fill="white"/>
<path d="M253.81 168.966H241.379V181.397H253.81V168.966Z" fill="white"/>
<path d="M277.948 168.966H265.517V181.397H277.948V168.966Z" fill="white"/>
<path d="M302.086 168.966H289.655V181.397H302.086V168.966Z" fill="white"/>
<path d="M314.155 168.966H301.724V181.397H314.155V168.966Z" fill="white"/>
<path d="M326.224 168.966H313.793V181.397H326.224V168.966Z" fill="white"/>
<path d="M36.569 181.034H24.1379V193.465H36.569V181.034Z" fill="white"/>
<path d="M48.6379 181.034H36.2069V193.465H48.6379V181.034Z" fill="white"/>
<path d="M72.7759 181.034H60.3448V193.465H72.7759V181.034Z" fill="white"/>
<path d="M84.8449 181.034H72.4138V193.465H84.8449V181.034Z" fill="white"/>
<path d="M133.121 181.034H120.69V193.465H133.121V181.034Z" fill="white"/>
<path d="M145.19 181.034H132.759V193.465H145.19V181.034Z" fill="white"/>
<path d="M157.259 181.034H144.828V193.465H157.259V181.034Z" fill="white"/>
<path d="M241.741 181.034H229.31V193.465H241.741V181.034Z" fill="white"/>
<path d="M265.879 181.034H253.448V193.465H265.879V181.034Z" fill="white"/>
<path d="M290.017 181.034H277.586V193.465H290.017V181.034Z" fill="white"/>
<path d="M314.155 181.034H301.724V193.465H314.155V181.034Z" fill="white"/>
<path d="M36.569 193.104H24.1379V205.535H36.569V193.104Z" fill="white"/>
<path d="M72.7759 193.104H60.3448V205.535H72.7759V193.104Z" fill="white"/>
<path d="M96.9138 193.104H84.4828V205.535H96.9138V193.104Z" fill="white"/>
<path d="M108.983 193.104H96.5518V205.535H108.983V193.104Z" fill="white"/>
<path d="M121.052 193.104H108.621V205.535H121.052V193.104Z" fill="white"/>
<path d="M169.328 193.104H156.897V205.535H169.328V193.104Z" fill="white"/>
<path d="M181.397 193.104H168.966V205.535H181.397V193.104Z" fill="white"/>
<path d="M217.603 193.104H205.172V205.535H217.603V193.104Z" fill="white"/>
<path d="M241.741 193.104H229.31V205.535H241.741V193.104Z" fill="white"/>
<path d="M253.81 193.104H241.379V205.535H253.81V193.104Z" fill="white"/>
<path d="M265.879 193.104H253.448V205.535H265.879V193.104Z" fill="white"/>
<path d="M277.948 193.104H265.517V205.535H277.948V193.104Z" fill="white"/>
<path d="M290.017 193.104H277.586V205.535H290.017V193.104Z" fill="white"/>
<path d="M314.155 193.104H301.724V205.535H314.155V193.104Z" fill="white"/>
<path d="M326.224 193.104H313.793V205.535H326.224V193.104Z" fill="white"/>
<path d="M36.569 205.172H24.1379V217.603H36.569V205.172Z" fill="white"/>
<path d="M72.7759 205.172H60.3448V217.603H72.7759V205.172Z" fill="white"/>
<path d="M133.121 205.172H120.69V217.603H133.121V205.172Z" fill="white"/>
<path d="M169.328 205.172H156.897V217.603H169.328V205.172Z" fill="white"/>
<path d="M205.535 205.172H193.104V217.603H205.535V205.172Z" fill="white"/>
<path d="M217.603 205.172H205.172V217.603H217.603V205.172Z" fill="white"/>
<path d="M253.81 205.172H241.379V217.603H253.81V205.172Z" fill="white"/>
<path d="M265.879 205.172H253.448V217.603H265.879V205.172Z" fill="white"/>
<path d="M277.948 205.172H265.517V217.603H277.948V205.172Z" fill="white"/>
<path d="M326.224 205.172H313.793V217.603H326.224V205.172Z" fill="white"/>
<path d="M36.569 217.241H24.1379V229.672H36.569V217.241Z" fill="white"/>
<path d="M84.8449 217.241H72.4138V229.672H84.8449V217.241Z" fill="white"/>
<path d="M96.9138 217.241H84.4828V229.672H96.9138V217.241Z" fill="white"/>
<path d="M108.983 217.241H96.5518V229.672H108.983V217.241Z" fill="white"/>
<path d="M133.121 217.241H120.69V229.672H133.121V217.241Z" fill="white"/>
<path d="M169.328 217.241H156.897V229.672H169.328V217.241Z" fill="white"/>
<path d="M229.672 217.241H217.241V229.672H229.672V217.241Z" fill="white"/>
<path d="M241.741 217.241H229.31V229.672H241.741V217.241Z" fill="white"/>
<path d="M253.81 217.241H241.379V229.672H253.81V217.241Z" fill="white"/>
<path d="M265.879 217.241H253.448V229.672H265.879V217.241Z" fill="white"/>
<path d="M277.948 217.241H265.517V229.672H277.948V217.241Z" fill="white"/>
<path d="M302.086 217.241H289.655V229.672H302.086V217.241Z" fill="white"/>
<path d="M133.121 229.31H120.69V241.741H133.121V229.31Z" fill="white"/>
<path d="M181.397 229.31H168.966V241.741H181.397V229.31Z" fill="white"/>
<path d="M193.465 229.31H181.034V241.741H193.465V229.31Z" fill="white"/>
<path d="M205.535 229.31H193.104V241.741H205.535V229.31Z" fill="white"/>
<path d="M229.672 229.31H217.241V241.741H229.672V229.31Z" fill="white"/>
<path d="M277.948 229.31H265.517V241.741H277.948V229.31Z" fill="white"/>
<path d="M290.017 229.31H277.586V241.741H290.017V229.31Z" fill="white"/>
<path d="M157.259 241.379H144.828V253.81H157.259V241.379Z" fill="white"/>
<path d="M193.465 241.379H181.034V253.81H193.465V241.379Z" fill="white"/>
<path d="M205.535 241.379H193.104V253.81H205.535V241.379Z" fill="white"/>
<path d="M229.672 241.379H217.241V253.81H229.672V241.379Z" fill="white"/>
<path d="M253.81 241.379H241.379V253.81H253.81V241.379Z" fill="white"/>
<path d="M277.948 241.379H265.517V253.81H277.948V241.379Z" fill="white"/>
<path d="M302.086 241.379H289.655V253.81H302.086V241.379Z" fill="white"/>
<path d="M314.155 241.379H301.724V253.81H314.155V241.379Z" fill="white"/>
<path d="M326.224 241.379H313.793V253.81H326.224V241.379Z" fill="white"/>
<path d="M133.121 253.448H120.69V265.879H133.121V253.448Z" fill="white"/>
<path d="M145.19 253.448H132.759V265.879H145.19V253.448Z" fill="white"/>
<path d="M157.259 253.448H144.828V265.879H157.259V253.448Z" fill="white"/>
<path d="M181.397 253.448H168.966V265.879H181.397V253.448Z" fill="white"/>
<path d="M193.465 253.448H181.034V265.879H193.465V253.448Z" fill="white"/>
<path d="M229.672 253.448H217.241V265.879H229.672V253.448Z" fill="white"/>
<path d="M277.948 253.448H265.517V265.879H277.948V253.448Z" fill="white"/>
<path d="M290.017 253.448H277.586V265.879H290.017V253.448Z" fill="white"/>
<path d="M314.155 253.448H301.724V265.879H314.155V253.448Z" fill="white"/>
<path d="M133.121 265.517H120.69V277.948H133.121V265.517Z" fill="white"/>
<path d="M181.397 265.517H168.966V277.948H181.397V265.517Z" fill="white"/>
<path d="M205.535 265.517H193.104V277.948H205.535V265.517Z" fill="white"/>
<path d="M217.603 265.517H205.172V277.948H217.603V265.517Z" fill="white"/>
<path d="M229.672 265.517H217.241V277.948H229.672V265.517Z" fill="white"/>
<path d="M241.741 265.517H229.31V277.948H241.741V265.517Z" fill="white"/>
<path d="M253.81 265.517H241.379V277.948H253.81V265.517Z" fill="white"/>
<path d="M265.879 265.517H253.448V277.948H265.879V265.517Z" fill="white"/>
<path d="M277.948 265.517H265.517V277.948H277.948V265.517Z" fill="white"/>
<path d="M302.086 265.517H289.655V277.948H302.086V265.517Z" fill="white"/>
<path d="M326.224 265.517H313.793V277.948H326.224V265.517Z" fill="white"/>
<path d="M133.121 277.586H120.69V290.017H133.121V277.586Z" fill="white"/>
<path d="M157.259 277.586H144.828V290.017H157.259V277.586Z" fill="white"/>
<path d="M241.741 277.586H229.31V290.017H241.741V277.586Z" fill="white"/>
<path d="M253.81 277.586H241.379V290.017H253.81V277.586Z" fill="white"/>
<path d="M277.948 277.586H265.517V290.017H277.948V277.586Z" fill="white"/>
<path d="M290.017 277.586H277.586V290.017H290.017V277.586Z" fill="white"/>
<path d="M302.086 277.586H289.655V290.017H302.086V277.586Z" fill="white"/>
<path d="M314.155 277.586H301.724V290.017H314.155V277.586Z" fill="white"/>
<path d="M326.224 277.586H313.793V290.017H326.224V277.586Z" fill="white"/>
<path d="M133.121 289.655H120.69V302.086H133.121V289.655Z" fill="white"/>
<path d="M169.328 289.655H156.897V302.086H169.328V289.655Z" fill="white"/>
<path d="M181.397 289.655H168.966V302.086H181.397V289.655Z" fill="white"/>
<path d="M217.603 289.655H205.172V302.086H217.603V289.655Z" fill="white"/>
<path d="M229.672 289.655H217.241V302.086H229.672V289.655Z" fill="white"/>
<path d="M241.741 289.655H229.31V302.086H241.741V289.655Z" fill="white"/>
<path d="M290.017 289.655H277.586V302.086H290.017V289.655Z" fill="white"/>
<path d="M302.086 289.655H289.655V302.086H302.086V289.655Z" fill="white"/>
<path d="M326.224 289.655H313.793V302.086H326.224V289.655Z" fill="white"/>
<path d="M169.328 301.724H156.897V314.155H169.328V301.724Z" fill="white"/>
<path d="M205.535 301.724H193.104V314.155H205.535V301.724Z" fill="white"/>
<path d="M217.603 301.724H205.172V314.155H217.603V301.724Z" fill="white"/>
<path d="M229.672 301.724H217.241V314.155H229.672V301.724Z" fill="white"/>
<path d="M253.81 301.724H241.379V314.155H253.81V301.724Z" fill="white"/>
<path d="M265.879 301.724H253.448V314.155H265.879V301.724Z" fill="white"/>
<path d="M277.948 301.724H265.517V314.155H277.948V301.724Z" fill="white"/>
<path d="M290.017 301.724H277.586V314.155H290.017V301.724Z" fill="white"/>
<path d="M326.224 301.724H313.793V314.155H326.224V301.724Z" fill="white"/>
<path d="M133.121 313.793H120.69V326.224H133.121V313.793Z" fill="white"/>
<path d="M169.328 313.793H156.897V326.224H169.328V313.793Z" fill="white"/>
<path d="M265.879 313.793H253.448V326.224H265.879V313.793Z" fill="white"/>
<path d="M277.948 313.793H265.517V326.224H277.948V313.793Z" fill="white"/>
<path d="M290.017 313.793H277.586V326.224H290.017V313.793Z" fill="white"/>
<path d="M302.086 313.793H289.655V326.224H302.086V313.793Z" fill="white"/>
<path d="M314.155 313.793H301.724V326.224H314.155V313.793Z" fill="white"/>
<path d="M326.224 313.793H313.793V326.224H326.224V313.793Z" fill="white"/>
<path d="M24.1379 24.1379V108.621H108.621V24.1379H24.1379ZM96.5517 96.5517H36.2069V36.2069H96.5517V96.5517Z" fill="white"/>
<path d="M241.379 24.1379V108.621H325.862V24.1379H241.379ZM313.793 96.5517H253.448V36.2069H313.793V96.5517Z" fill="white"/>
<path d="M24.1379 241.379V325.862H108.621V241.379H24.1379ZM96.5517 313.793H36.2069V253.448H96.5517V313.793Z" fill="white"/>
<path d="M84.4828 48.2759H48.2759V84.4828H84.4828V48.2759Z" fill="white"/>
<path d="M301.724 48.2759H265.517V84.4828H301.724V48.2759Z" fill="white"/>
<path d="M84.4828 265.517H48.2759V301.724H84.4828V265.517Z" fill="white"/>
</svg>
