<svg width="311" height="72" viewBox="0 0 311 72" fill="none" xmlns="http://www.w3.org/2000/svg">
<path d="M3.70773 71.38C2.9144 71.38 2.26107 71.1233 1.74773 70.61C1.2344 70.0967 0.977735 69.4433 0.977735 68.65V2.99C0.977735 2.24333 1.2344 1.61333 1.74773 1.1C2.26107 0.539996 2.9144 0.259995 3.70773 0.259995H14.7677C15.5611 0.259995 16.2144 0.539996 16.7277 1.1C17.2877 1.61333 17.5677 2.24333 17.5677 2.99C17.5677 3.78333 17.2877 4.46 16.7277 5.02C16.2144 5.53333 15.5611 5.79 14.7677 5.79H6.43773V65.85H14.7677C15.5611 65.85 16.2144 66.1067 16.7277 66.62C17.2877 67.18 17.5677 67.8567 17.5677 68.65C17.5677 69.4433 17.2877 70.0967 16.7277 70.61C16.2144 71.1233 15.5611 71.38 14.7677 71.38H3.70773ZM47.7886 55C47.0419 55 46.3886 54.7433 45.8286 54.23C45.3153 53.67 45.0586 53.0167 45.0586 52.27V3.06C45.0586 2.26666 45.3153 1.61333 45.8286 1.1C46.3886 0.586665 47.0419 0.329999 47.7886 0.329999C48.9086 0.329999 49.7253 0.796665 50.2386 1.73L73.8286 48.63H71.4486L94.6186 1.73C95.1786 0.796665 95.9953 0.329999 97.0686 0.329999C97.8153 0.329999 98.4453 0.586665 98.9586 1.1C99.4719 1.61333 99.7286 2.26666 99.7286 3.06V52.27C99.7286 53.0167 99.4719 53.67 98.9586 54.23C98.4453 54.7433 97.8153 55 97.0686 55C96.2753 55 95.5986 54.7433 95.0386 54.23C94.5253 53.67 94.2686 53.0167 94.2686 52.27V10.13L95.4586 10.2L74.8086 52.41C74.2953 53.2967 73.5019 53.74 72.4286 53.74C71.2619 53.74 70.4219 53.18 69.9086 52.06L49.1186 10.48L50.5186 10.13V52.27C50.5186 53.0167 50.2386 53.67 49.6786 54.23C49.1653 54.7433 48.5353 55 47.7886 55ZM129.93 55.35C126.336 55.35 123.116 54.51 120.27 52.83C117.423 51.1033 115.16 48.77 113.48 45.83C111.846 42.89 111.03 39.5767 111.03 35.89C111.03 32.1567 111.87 28.82 113.55 25.88C115.276 22.94 117.61 20.63 120.55 18.95C123.49 17.2233 126.803 16.36 130.49 16.36C134.176 16.36 137.466 17.2233 140.36 18.95C143.3 20.63 145.61 22.94 147.29 25.88C149.016 28.82 149.903 32.1567 149.95 35.89L147.78 37.57C147.78 40.93 146.986 43.9633 145.4 46.67C143.86 49.33 141.736 51.4533 139.03 53.04C136.37 54.58 133.336 55.35 129.93 55.35ZM130.49 50.45C133.196 50.45 135.6 49.82 137.7 48.56C139.846 47.3 141.526 45.5733 142.74 43.38C144 41.14 144.63 38.6433 144.63 35.89C144.63 33.09 144 30.5933 142.74 28.4C141.526 26.2067 139.846 24.48 137.7 23.22C135.6 21.9133 133.196 21.26 130.49 21.26C127.83 21.26 125.426 21.9133 123.28 23.22C121.133 24.48 119.43 26.2067 118.17 28.4C116.91 30.5933 116.28 33.09 116.28 35.89C116.28 38.6433 116.91 41.14 118.17 43.38C119.43 45.5733 121.133 47.3 123.28 48.56C125.426 49.82 127.83 50.45 130.49 50.45ZM147.22 55C146.426 55 145.773 54.7667 145.26 54.3C144.746 53.7867 144.49 53.1333 144.49 52.34V40.37L145.82 34.84L149.95 35.89V52.34C149.95 53.1333 149.693 53.7867 149.18 54.3C148.666 54.7667 148.013 55 147.22 55ZM175.413 55C172.939 55 170.723 54.4167 168.763 53.25C166.849 52.0833 165.333 50.4967 164.213 48.49C163.093 46.4367 162.533 44.1033 162.533 41.49V7.26C162.533 6.46666 162.766 5.81333 163.233 5.3C163.746 4.78667 164.399 4.53 165.193 4.53C165.986 4.53 166.639 4.78667 167.153 5.3C167.666 5.81333 167.923 6.46666 167.923 7.26V41.49C167.923 43.87 168.623 45.83 170.023 47.37C171.423 48.8633 173.219 49.61 175.413 49.61H177.303C178.049 49.61 178.656 49.8667 179.123 50.38C179.589 50.8933 179.823 51.5467 179.823 52.34C179.823 53.1333 179.543 53.7867 178.983 54.3C178.423 54.7667 177.723 55 176.883 55H175.413ZM157.983 22.8C157.283 22.8 156.699 22.59 156.233 22.17C155.766 21.7033 155.533 21.1433 155.533 20.49C155.533 19.79 155.766 19.23 156.233 18.81C156.699 18.3433 157.283 18.11 157.983 18.11H175.833C176.533 18.11 177.116 18.3433 177.583 18.81C178.049 19.23 178.283 19.79 178.283 20.49C178.283 21.1433 178.049 21.7033 177.583 22.17C177.116 22.59 176.533 22.8 175.833 22.8H157.983ZM190.837 31.41C190.977 28.5167 191.724 25.9267 193.077 23.64C194.477 21.3533 196.274 19.5567 198.467 18.25C200.707 16.9433 203.18 16.29 205.887 16.29C208.034 16.29 209.69 16.5933 210.857 17.2C212.024 17.8067 212.467 18.6933 212.187 19.86C212 20.56 211.674 21.0267 211.207 21.26C210.787 21.4933 210.25 21.5867 209.597 21.54C208.99 21.4933 208.29 21.4467 207.497 21.4C204.884 21.1667 202.55 21.4467 200.497 22.24C198.49 22.9867 196.88 24.1533 195.667 25.74C194.5 27.3267 193.917 29.2167 193.917 31.41H190.837ZM191.257 55C190.417 55 189.764 54.7667 189.297 54.3C188.83 53.8333 188.597 53.18 188.597 52.34V19.37C188.597 18.53 188.83 17.8767 189.297 17.41C189.764 16.9433 190.417 16.71 191.257 16.71C192.097 16.71 192.75 16.9433 193.217 17.41C193.684 17.8767 193.917 18.53 193.917 19.37V52.34C193.917 53.18 193.684 53.8333 193.217 54.3C192.75 54.7667 192.097 55 191.257 55ZM224.507 55C223.667 55 222.991 54.7667 222.477 54.3C222.011 53.7867 221.777 53.11 221.777 52.27V19.44C221.777 18.6 222.011 17.9467 222.477 17.48C222.991 16.9667 223.667 16.71 224.507 16.71C225.301 16.71 225.931 16.9667 226.397 17.48C226.911 17.9467 227.167 18.6 227.167 19.44V52.27C227.167 53.11 226.911 53.7867 226.397 54.3C225.931 54.7667 225.301 55 224.507 55ZM224.437 9.43C223.411 9.43 222.524 9.05666 221.777 8.31C221.031 7.56333 220.657 6.65333 220.657 5.58C220.657 4.41333 221.031 3.50333 221.777 2.85C222.571 2.15 223.481 1.8 224.507 1.8C225.487 1.8 226.351 2.15 227.097 2.85C227.891 3.50333 228.287 4.41333 228.287 5.58C228.287 6.65333 227.914 7.56333 227.167 8.31C226.421 9.05666 225.511 9.43 224.437 9.43ZM267.632 55C267.072 55 266.605 54.9067 266.232 54.72C265.905 54.5333 265.555 54.2067 265.182 53.74L253.072 38.34L250.972 36.52L238.792 21.05C238.278 20.4433 238.022 19.8133 238.022 19.16C238.068 18.5067 238.302 17.9467 238.722 17.48C239.142 16.9667 239.748 16.71 240.542 16.71C241.335 16.71 242.012 16.99 242.572 17.55L254.332 32.6L256.222 34.14L269.242 50.8C269.848 51.5467 270.105 52.2467 270.012 52.9C269.918 53.5533 269.615 54.0667 269.102 54.44C268.635 54.8133 268.145 55 267.632 55ZM239.912 55C239.165 55 238.558 54.7667 238.092 54.3C237.672 53.8333 237.438 53.2733 237.392 52.62C237.392 51.9667 237.648 51.3367 238.162 50.73L251.042 34.63L254.052 38.62L241.802 54.16C241.382 54.72 240.752 55 239.912 55ZM256.292 36.8L252.862 33.3L264.972 17.97C265.298 17.5033 265.648 17.1767 266.022 16.99C266.442 16.8033 266.862 16.71 267.282 16.71C268.075 16.71 268.682 16.9667 269.102 17.48C269.522 17.9467 269.708 18.53 269.662 19.23C269.662 19.8833 269.428 20.5133 268.962 21.12L256.292 36.8ZM296.249 71.38C295.456 71.38 294.779 71.1233 294.219 70.61C293.706 70.0967 293.449 69.4433 293.449 68.65C293.449 67.8567 293.706 67.18 294.219 66.62C294.779 66.1067 295.456 65.85 296.249 65.85H304.579V5.79H296.249C295.456 5.79 294.779 5.53333 294.219 5.02C293.706 4.46 293.449 3.78333 293.449 2.99C293.449 2.24333 293.706 1.61333 294.219 1.1C294.779 0.539996 295.456 0.259995 296.249 0.259995H307.309C308.056 0.259995 308.686 0.539996 309.199 1.1C309.759 1.61333 310.039 2.24333 310.039 2.99V68.65C310.039 69.4433 309.759 70.0967 309.199 70.61C308.686 71.1233 308.056 71.38 307.309 71.38H296.249Z" fill="white"/>
</svg>
