<svg width="39" height="80" viewBox="0 0 39 80" fill="none" xmlns="http://www.w3.org/2000/svg">
<rect x="0.5" y="0.5" width="37.5371" height="79" rx="2.5" fill="white" fill-opacity="0.15" stroke="white"/>
<path fill-rule="evenodd" clip-rule="evenodd" d="M19.6 5.2C20.4837 5.2 21.2 4.48366 21.2 3.6C21.2 2.71634 20.4837 2 19.6 2C18.7163 2 18 2.71634 18 3.6C18 4.48366 18.7163 5.2 19.6 5.2ZM19.5999 4.55993C20.1301 4.55993 20.5599 4.13013 20.5599 3.59993C20.5599 3.06974 20.1301 2.63993 19.5999 2.63993C19.0697 2.63993 18.6399 3.06974 18.6399 3.59993C18.6399 4.13013 19.0697 4.55993 19.5999 4.55993Z" fill="white"/>
<path d="M9.71783 53.9111C9.31164 53.9111 8.97714 53.7797 8.71431 53.5168C8.45148 53.254 8.32007 52.9195 8.32007 52.5133V27.3178C8.32007 26.9116 8.45148 26.5771 8.71431 26.3143C8.97714 26.0515 9.31164 25.92 9.71783 25.92H28.7847C29.1909 25.92 29.5254 26.0515 29.7882 26.3143C30.0511 26.5771 30.1825 26.9116 30.1825 27.3178V52.5133C30.1825 52.9195 30.0511 53.254 29.7882 53.5168C29.5254 53.7797 29.1909 53.9111 28.7847 53.9111C28.3785 53.9111 28.044 53.7797 27.7812 53.5168C27.5184 53.254 27.387 52.9195 27.387 52.5133V28.5364H11.1156V52.5133C11.1156 52.9195 10.9842 53.254 10.7213 53.5168C10.4585 53.7797 10.124 53.9111 9.71783 53.9111Z" fill="white"/>
</svg>
