<svg width="55" height="55" viewBox="0 0 55 55" fill="none" xmlns="http://www.w3.org/2000/svg">
<path d="M21.2709 54.5833L19.9167 46.0521C19.0591 45.7361 18.1563 45.3073 17.2084 44.7656C16.2605 44.2239 15.4254 43.6597 14.7032 43.0729L6.71362 46.7292L0.416748 35.625L7.72925 30.276C7.63897 29.8698 7.58255 29.4071 7.55998 28.888C7.53741 28.3689 7.52612 27.9062 7.52612 27.5C7.52612 27.0937 7.53741 26.6311 7.55998 26.112C7.58255 25.5929 7.63897 25.1302 7.72925 24.724L0.416748 19.375L6.71362 8.27082L14.7032 11.9271C15.4254 11.3403 16.2605 10.776 17.2084 10.2344C18.1563 9.6927 19.0591 9.28645 19.9167 9.01562L21.2709 0.416656H33.7293L35.0834 8.94791C35.9411 9.26388 36.8551 9.68141 37.8256 10.2005C38.7961 10.7196 39.6199 11.2951 40.297 11.9271L48.2865 8.27082L54.5834 19.375L47.2709 24.5885C47.3612 25.0399 47.4176 25.5252 47.4402 26.0443C47.4628 26.5634 47.474 27.0486 47.474 27.5C47.474 27.9514 47.4628 28.4253 47.4402 28.9219C47.4176 29.4184 47.3612 29.8924 47.2709 30.3437L54.5834 35.625L48.2865 46.7292L40.297 43.0729C39.5747 43.6597 38.7509 44.2352 37.8256 44.7995C36.9003 45.3637 35.9862 45.7812 35.0834 46.0521L33.7293 54.5833H21.2709ZM27.5001 36.3021C29.9376 36.3021 32.014 35.4444 33.7293 33.7292C35.4445 32.0139 36.3022 29.9375 36.3022 27.5C36.3022 25.0625 35.4445 22.9861 33.7293 21.2708C32.014 19.5555 29.9376 18.6979 27.5001 18.6979C25.0626 18.6979 22.9862 19.5555 21.2709 21.2708C19.5556 22.9861 18.698 25.0625 18.698 27.5C18.698 29.9375 19.5556 32.0139 21.2709 33.7292C22.9862 35.4444 25.0626 36.3021 27.5001 36.3021ZM27.5001 32.2396C26.1911 32.2396 25.0739 31.7769 24.1485 30.8516C23.2232 29.9262 22.7605 28.809 22.7605 27.5C22.7605 26.191 23.2232 25.0738 24.1485 24.1484C25.0739 23.2231 26.1911 22.7604 27.5001 22.7604C28.8091 22.7604 29.9263 23.2231 30.8516 24.1484C31.777 25.0738 32.2397 26.191 32.2397 27.5C32.2397 28.809 31.777 29.9262 30.8516 30.8516C29.9263 31.7769 28.8091 32.2396 27.5001 32.2396ZM24.5209 50.5208H30.4792L31.4272 42.9375C32.9167 42.5764 34.3273 42.0121 35.6589 41.2448C36.9905 40.4774 38.198 39.5521 39.2813 38.4687L46.4584 41.5833L49.1668 36.7083L42.8022 32.0365C42.9827 31.2691 43.1294 30.513 43.2423 29.7682C43.3551 29.0234 43.4115 28.2674 43.4115 27.5C43.4115 26.7326 43.3664 25.9766 43.2761 25.2318C43.1858 24.487 43.0279 23.7309 42.8022 22.9635L49.1668 18.2917L46.4584 13.4167L39.2813 16.5312C38.2431 15.3576 37.0695 14.3759 35.7605 13.5859C34.4515 12.796 33.007 12.2882 31.4272 12.0625L30.4792 4.47916H24.5209L23.573 12.0625C22.0383 12.3785 20.6051 12.9201 19.2735 13.6875C17.9419 14.4549 16.757 15.4028 15.7188 16.5312L8.54175 13.4167L5.83342 18.2917L12.198 22.9635C12.0174 23.7309 11.8707 24.487 11.7579 25.2318C11.645 25.9766 11.5886 26.7326 11.5886 27.5C11.5886 28.2674 11.645 29.0234 11.7579 29.7682C11.8707 30.513 12.0174 31.2691 12.198 32.0365L5.83342 36.7083L8.54175 41.5833L15.7188 38.4687C16.8022 39.5521 18.0096 40.4774 19.3412 41.2448C20.6728 42.0121 22.0834 42.5764 23.573 42.9375L24.5209 50.5208Z" fill="white"/>
</svg>
