<svg width="44" height="42" viewBox="0 0 44 42" fill="none" xmlns="http://www.w3.org/2000/svg">
<path d="M21.8659 27.2118C24.0073 27.2118 25.8245 26.4991 27.3174 25.0738C28.8104 23.6484 29.5568 21.9134 29.5568 19.869C29.5568 17.8245 28.8104 16.0895 27.3174 14.6642C25.8245 13.2388 24.0073 12.5261 21.8659 12.5261C19.7245 12.5261 17.9073 13.2388 16.4144 14.6642C14.9214 16.0895 14.175 17.8245 14.175 19.869C14.175 21.9134 14.9214 23.6484 16.4144 25.0738C17.9073 26.4991 19.7245 27.2118 21.8659 27.2118ZM21.8659 24.7066C20.4484 24.7066 19.2495 24.2387 18.2693 23.3028C17.289 22.367 16.7989 21.2224 16.7989 19.869C16.7989 18.5156 17.289 17.3709 18.2693 16.4351C19.2495 15.4992 20.4484 15.0313 21.8659 15.0313C23.2834 15.0313 24.4823 15.4992 25.4625 16.4351C26.4428 17.3709 26.9329 18.5156 26.9329 19.869C26.9329 21.2224 26.4428 22.367 25.4625 23.3028C24.4823 24.2387 23.2834 24.7066 21.8659 24.7066ZM21.8659 32.827C17.4625 32.827 13.4813 31.632 9.92234 29.2419C6.3634 26.8519 3.70927 23.7276 1.95996 19.869C3.70927 16.0104 6.3634 12.886 9.92234 10.496C13.4813 8.10597 17.4625 6.91095 21.8659 6.91095C26.2693 6.91095 30.2505 8.10597 33.8095 10.496C37.3684 12.886 40.0225 16.0104 41.7718 19.869C40.0225 23.7276 37.3684 26.8519 33.8095 29.2419C30.2505 31.632 26.2693 32.827 21.8659 32.827ZM21.8659 30.2354C25.5153 30.2354 28.8707 29.2923 31.932 27.4062C34.9933 25.5201 37.3232 23.0077 38.9217 19.869C37.3232 16.7302 34.9933 14.2178 31.932 12.3317C28.8707 10.4456 25.5153 9.50255 21.8659 9.50255C18.2165 9.50255 14.8611 10.4456 11.7998 12.3317C8.73854 14.2178 6.39356 16.7302 4.76489 19.869C6.39356 23.0077 8.73854 25.5201 11.7998 27.4062C14.8611 29.2923 18.2165 30.2354 21.8659 30.2354Z" fill="#7C76A3"/>
</svg>
